<svg xmlns="http://www.w3.org/2000/svg" xmlns:xlink="http://www.w3.org/1999/xlink" width="400" zoomAndPan="magnify" viewBox="0 0 300 149.999998" height="200" preserveAspectRatio="xMidYMid meet" version="1.2"><defs/><g id="f77d0b7cca"><g style="fill:#000000;fill-opacity:1;"><g transform="translate(14.809532, 90.669309)"><path style="stroke:none" d="M 3.296875 -23.328125 L 5.96875 -23.328125 L 14.46875 -10.59375 L 22.96875 -23.328125 L 25.625 -23.328125 L 25.625 0 L 23 0 L 23 -18.890625 L 14.5 -6.40625 L 14.359375 -6.40625 L 5.859375 -18.859375 L 5.859375 0 L 3.296875 0 Z M 3.296875 -23.328125 "/></g></g><g style="fill:#000000;fill-opacity:1;"><g transform="translate(39.771406, 90.669309)"><path style="stroke:none" d="M 14.125 0.40625 C 12.351562 0.40625 10.738281 0.0820312 9.28125 -0.5625 C 7.820312 -1.207031 6.570312 -2.078125 5.53125 -3.171875 C 4.488281 -4.273438 3.679688 -5.554688 3.109375 -7.015625 C 2.546875 -8.472656 2.265625 -10 2.265625 -11.59375 L 2.265625 -11.671875 C 2.265625 -13.265625 2.550781 -14.796875 3.125 -16.265625 C 3.707031 -17.734375 4.519531 -19.015625 5.5625 -20.109375 C 6.601562 -21.210938 7.859375 -22.09375 9.328125 -22.75 C 10.796875 -23.40625 12.421875 -23.734375 14.203125 -23.734375 C 15.972656 -23.734375 17.585938 -23.410156 19.046875 -22.765625 C 20.503906 -22.117188 21.753906 -21.242188 22.796875 -20.140625 C 23.835938 -19.046875 24.640625 -17.769531 25.203125 -16.3125 C 25.773438 -14.851562 26.0625 -13.328125 26.0625 -11.734375 L 26.0625 -11.671875 C 26.0625 -10.066406 25.769531 -8.53125 25.1875 -7.0625 C 24.613281 -5.59375 23.804688 -4.304688 22.765625 -3.203125 C 21.722656 -2.109375 20.46875 -1.234375 19 -0.578125 C 17.53125 0.078125 15.90625 0.40625 14.125 0.40625 Z M 14.203125 -2.03125 C 15.535156 -2.03125 16.757812 -2.28125 17.875 -2.78125 C 19 -3.28125 19.960938 -3.960938 20.765625 -4.828125 C 21.566406 -5.691406 22.191406 -6.703125 22.640625 -7.859375 C 23.097656 -9.015625 23.328125 -10.257812 23.328125 -11.59375 L 23.328125 -11.671875 C 23.328125 -13.003906 23.097656 -14.25 22.640625 -15.40625 C 22.191406 -16.570312 21.554688 -17.585938 20.734375 -18.453125 C 19.910156 -19.328125 18.9375 -20.019531 17.8125 -20.53125 C 16.6875 -21.039062 15.457031 -21.296875 14.125 -21.296875 C 12.789062 -21.296875 11.5625 -21.046875 10.4375 -20.546875 C 9.320312 -20.046875 8.363281 -19.363281 7.5625 -18.5 C 6.757812 -17.632812 6.128906 -16.625 5.671875 -15.46875 C 5.222656 -14.3125 5 -13.066406 5 -11.734375 L 5 -11.671875 C 5 -10.335938 5.222656 -9.085938 5.671875 -7.921875 C 6.128906 -6.753906 6.769531 -5.734375 7.59375 -4.859375 C 8.414062 -3.992188 9.390625 -3.304688 10.515625 -2.796875 C 11.640625 -2.285156 12.867188 -2.03125 14.203125 -2.03125 Z M 14.203125 -2.03125 "/></g></g><g style="fill:#000000;fill-opacity:1;"><g transform="translate(64.133381, 90.669309)"><path style="stroke:none" d="M 3.296875 -23.328125 L 11.390625 -23.328125 C 13.210938 -23.328125 14.882812 -23.03125 16.40625 -22.4375 C 17.9375 -21.851562 19.25 -21.039062 20.34375 -20 C 21.445312 -18.957031 22.296875 -17.726562 22.890625 -16.3125 C 23.492188 -14.90625 23.796875 -13.378906 23.796875 -11.734375 L 23.796875 -11.671875 C 23.796875 -10.023438 23.492188 -8.488281 22.890625 -7.0625 C 22.296875 -5.644531 21.445312 -4.410156 20.34375 -3.359375 C 19.25 -2.316406 17.9375 -1.492188 16.40625 -0.890625 C 14.882812 -0.296875 13.210938 0 11.390625 0 L 3.296875 0 Z M 5.9375 -20.890625 L 5.9375 -2.4375 L 11.390625 -2.4375 C 12.859375 -2.4375 14.191406 -2.664062 15.390625 -3.125 C 16.597656 -3.59375 17.617188 -4.238281 18.453125 -5.0625 C 19.285156 -5.882812 19.925781 -6.859375 20.375 -7.984375 C 20.832031 -9.109375 21.0625 -10.3125 21.0625 -11.59375 L 21.0625 -11.671875 C 21.0625 -12.953125 20.832031 -14.15625 20.375 -15.28125 C 19.925781 -16.40625 19.285156 -17.382812 18.453125 -18.21875 C 17.617188 -19.050781 16.597656 -19.703125 15.390625 -20.171875 C 14.191406 -20.648438 12.859375 -20.890625 11.390625 -20.890625 Z M 5.9375 -20.890625 "/></g></g><g style="fill:#000000;fill-opacity:1;"><g transform="translate(86.229048, 90.669309)"><path style="stroke:none" d="M 3.296875 -23.328125 L 20.15625 -23.328125 L 20.15625 -20.9375 L 5.9375 -20.9375 L 5.9375 -12.96875 L 18.65625 -12.96875 L 18.65625 -10.5625 L 5.9375 -10.5625 L 5.9375 -2.40625 L 20.328125 -2.40625 L 20.328125 0 L 3.296875 0 Z M 3.296875 -23.328125 "/></g></g><g style="fill:#000000;fill-opacity:1;"><g transform="translate(104.591974, 90.669309)"><path style="stroke:none" d="M 3.296875 -23.328125 L 13.328125 -23.328125 C 14.773438 -23.328125 16.054688 -23.117188 17.171875 -22.703125 C 18.296875 -22.296875 19.226562 -21.726562 19.96875 -21 C 20.539062 -20.414062 20.984375 -19.734375 21.296875 -18.953125 C 21.609375 -18.179688 21.765625 -17.328125 21.765625 -16.390625 L 21.765625 -16.328125 C 21.765625 -15.347656 21.609375 -14.472656 21.296875 -13.703125 C 20.984375 -12.941406 20.539062 -12.273438 19.96875 -11.703125 C 19.40625 -11.140625 18.734375 -10.675781 17.953125 -10.3125 C 17.179688 -9.945312 16.34375 -9.6875 15.4375 -9.53125 L 22.59375 0 L 19.359375 0 L 12.59375 -9.0625 L 5.9375 -9.0625 L 5.9375 0 L 3.296875 0 Z M 13.09375 -11.4375 C 13.957031 -11.4375 14.753906 -11.546875 15.484375 -11.765625 C 16.222656 -11.984375 16.859375 -12.296875 17.390625 -12.703125 C 17.929688 -13.117188 18.347656 -13.617188 18.640625 -14.203125 C 18.941406 -14.796875 19.09375 -15.472656 19.09375 -16.234375 L 19.09375 -16.296875 C 19.09375 -17.742188 18.570312 -18.867188 17.53125 -19.671875 C 16.488281 -20.484375 15.019531 -20.890625 13.125 -20.890625 L 5.9375 -20.890625 L 5.9375 -11.4375 Z M 13.09375 -11.4375 "/></g></g><g style="fill:#000000;fill-opacity:1;"><g transform="translate(124.721284, 90.669309)"><path style="stroke:none" d="M 3.296875 -23.328125 L 5.765625 -23.328125 L 20.46875 -4.625 L 20.46875 -23.328125 L 23.03125 -23.328125 L 23.03125 0 L 20.9375 0 L 5.859375 -19.125 L 5.859375 0 L 3.296875 0 Z M 3.296875 -23.328125 "/></g></g><g style="fill:#000000;fill-opacity:1;"><g transform="translate(147.083575, 90.669309)"><path style="stroke:none" d=""/></g></g><g style="fill:#000000;fill-opacity:1;"><g transform="translate(153.115115, 90.669309)"><path style="stroke:none" d="M 3.296875 -23.328125 L 13.234375 -23.328125 C 14.566406 -23.328125 15.75 -23.144531 16.78125 -22.78125 C 17.8125 -22.414062 18.660156 -21.910156 19.328125 -21.265625 C 20.328125 -20.222656 20.828125 -18.976562 20.828125 -17.53125 L 20.828125 -17.46875 C 20.828125 -16.707031 20.722656 -16.03125 20.515625 -15.4375 C 20.304688 -14.851562 20.019531 -14.34375 19.65625 -13.90625 C 19.300781 -13.476562 18.90625 -13.113281 18.46875 -12.8125 C 18.039062 -12.507812 17.59375 -12.257812 17.125 -12.0625 C 17.8125 -11.863281 18.460938 -11.601562 19.078125 -11.28125 C 19.691406 -10.957031 20.21875 -10.570312 20.65625 -10.125 C 21.101562 -9.6875 21.457031 -9.160156 21.71875 -8.546875 C 21.988281 -7.929688 22.125 -7.226562 22.125 -6.4375 L 22.125 -6.359375 C 22.125 -5.359375 21.925781 -4.460938 21.53125 -3.671875 C 21.132812 -2.890625 20.5625 -2.222656 19.8125 -1.671875 C 19.070312 -1.128906 18.175781 -0.710938 17.125 -0.421875 C 16.082031 -0.140625 14.929688 0 13.671875 0 L 3.296875 0 Z M 18.15625 -17.15625 C 18.15625 -18.3125 17.710938 -19.234375 16.828125 -19.921875 C 15.941406 -20.617188 14.664062 -20.96875 13 -20.96875 L 5.90625 -20.96875 L 5.90625 -12.9375 L 12.796875 -12.9375 C 14.398438 -12.9375 15.691406 -13.285156 16.671875 -13.984375 C 17.660156 -14.679688 18.15625 -15.71875 18.15625 -17.09375 Z M 19.46875 -6.59375 C 19.46875 -7.863281 18.941406 -8.847656 17.890625 -9.546875 C 16.847656 -10.242188 15.304688 -10.59375 13.265625 -10.59375 L 5.90625 -10.59375 L 5.90625 -2.359375 L 13.734375 -2.359375 C 15.503906 -2.359375 16.898438 -2.722656 17.921875 -3.453125 C 18.953125 -4.191406 19.46875 -5.21875 19.46875 -6.53125 Z M 19.46875 -6.59375 "/></g></g><g style="fill:#000000;fill-opacity:1;"><g transform="translate(173.211099, 90.669309)"><path style="stroke:none" d="M 3.296875 -23.328125 L 13.328125 -23.328125 C 14.773438 -23.328125 16.054688 -23.117188 17.171875 -22.703125 C 18.296875 -22.296875 19.226562 -21.726562 19.96875 -21 C 20.539062 -20.414062 20.984375 -19.734375 21.296875 -18.953125 C 21.609375 -18.179688 21.765625 -17.328125 21.765625 -16.390625 L 21.765625 -16.328125 C 21.765625 -15.347656 21.609375 -14.472656 21.296875 -13.703125 C 20.984375 -12.941406 20.539062 -12.273438 19.96875 -11.703125 C 19.40625 -11.140625 18.734375 -10.675781 17.953125 -10.3125 C 17.179688 -9.945312 16.34375 -9.6875 15.4375 -9.53125 L 22.59375 0 L 19.359375 0 L 12.59375 -9.0625 L 5.9375 -9.0625 L 5.9375 0 L 3.296875 0 Z M 13.09375 -11.4375 C 13.957031 -11.4375 14.753906 -11.546875 15.484375 -11.765625 C 16.222656 -11.984375 16.859375 -12.296875 17.390625 -12.703125 C 17.929688 -13.117188 18.347656 -13.617188 18.640625 -14.203125 C 18.941406 -14.796875 19.09375 -15.472656 19.09375 -16.234375 L 19.09375 -16.296875 C 19.09375 -17.742188 18.570312 -18.867188 17.53125 -19.671875 C 16.488281 -20.484375 15.019531 -20.890625 13.125 -20.890625 L 5.9375 -20.890625 L 5.9375 -11.4375 Z M 13.09375 -11.4375 "/></g></g><g style="fill:#000000;fill-opacity:1;"><g transform="translate(193.340409, 90.669309)"><path style="stroke:none" d="M 11.9375 -23.5 L 14.390625 -23.5 L 25.03125 0 L 22.203125 0 L 19.46875 -6.171875 L 6.765625 -6.171875 L 4 0 L 1.296875 0 Z M 18.4375 -8.53125 L 13.125 -20.4375 L 7.796875 -8.53125 Z M 18.4375 -8.53125 "/></g></g><g style="fill:#000000;fill-opacity:1;"><g transform="translate(215.702701, 90.669309)"><path style="stroke:none" d="M 3.296875 -23.328125 L 5.765625 -23.328125 L 20.46875 -4.625 L 20.46875 -23.328125 L 23.03125 -23.328125 L 23.03125 0 L 20.9375 0 L 5.859375 -19.125 L 5.859375 0 L 3.296875 0 Z M 3.296875 -23.328125 "/></g></g><g style="fill:#000000;fill-opacity:1;"><g transform="translate(238.064981, 90.669309)"><path style="stroke:none" d="M 3.296875 -23.328125 L 11.390625 -23.328125 C 13.210938 -23.328125 14.882812 -23.03125 16.40625 -22.4375 C 17.9375 -21.851562 19.25 -21.039062 20.34375 -20 C 21.445312 -18.957031 22.296875 -17.726562 22.890625 -16.3125 C 23.492188 -14.90625 23.796875 -13.378906 23.796875 -11.734375 L 23.796875 -11.671875 C 23.796875 -10.023438 23.492188 -8.488281 22.890625 -7.0625 C 22.296875 -5.644531 21.445312 -4.410156 20.34375 -3.359375 C 19.25 -2.316406 17.9375 -1.492188 16.40625 -0.890625 C 14.882812 -0.296875 13.210938 0 11.390625 0 L 3.296875 0 Z M 5.9375 -20.890625 L 5.9375 -2.4375 L 11.390625 -2.4375 C 12.859375 -2.4375 14.191406 -2.664062 15.390625 -3.125 C 16.597656 -3.59375 17.617188 -4.238281 18.453125 -5.0625 C 19.285156 -5.882812 19.925781 -6.859375 20.375 -7.984375 C 20.832031 -9.109375 21.0625 -10.3125 21.0625 -11.59375 L 21.0625 -11.671875 C 21.0625 -12.953125 20.832031 -14.15625 20.375 -15.28125 C 19.925781 -16.40625 19.285156 -17.382812 18.453125 -18.21875 C 17.617188 -19.050781 16.597656 -19.703125 15.390625 -20.171875 C 14.191406 -20.648438 12.859375 -20.890625 11.390625 -20.890625 Z M 5.9375 -20.890625 "/></g></g><g style="fill:#000000;fill-opacity:1;"><g transform="translate(259.827363, 90.669309)"><path style="stroke:none" d="M 11.296875 0.328125 C 9.429688 0.328125 7.722656 0.0234375 6.171875 -0.578125 C 4.628906 -1.191406 3.160156 -2.132812 1.765625 -3.40625 L 3.40625 -5.328125 C 4.625 -4.222656 5.851562 -3.394531 7.09375 -2.84375 C 8.34375 -2.300781 9.773438 -2.03125 11.390625 -2.03125 C 12.972656 -2.03125 14.234375 -2.398438 15.171875 -3.140625 C 16.117188 -3.890625 16.59375 -4.84375 16.59375 -6 L 16.59375 -6.0625 C 16.59375 -6.59375 16.503906 -7.078125 16.328125 -7.515625 C 16.148438 -7.953125 15.835938 -8.347656 15.390625 -8.703125 C 14.953125 -9.054688 14.335938 -9.375 13.546875 -9.65625 C 12.753906 -9.945312 11.75 -10.226562 10.53125 -10.5 C 9.195312 -10.789062 8.035156 -11.125 7.046875 -11.5 C 6.054688 -11.875 5.238281 -12.328125 4.59375 -12.859375 C 3.945312 -13.398438 3.46875 -14.023438 3.15625 -14.734375 C 2.851562 -15.441406 2.703125 -16.273438 2.703125 -17.234375 L 2.703125 -17.296875 C 2.703125 -18.203125 2.890625 -19.046875 3.265625 -19.828125 C 3.640625 -20.609375 4.171875 -21.28125 4.859375 -21.84375 C 5.554688 -22.414062 6.367188 -22.859375 7.296875 -23.171875 C 8.234375 -23.492188 9.253906 -23.65625 10.359375 -23.65625 C 12.078125 -23.65625 13.570312 -23.414062 14.84375 -22.9375 C 16.125 -22.46875 17.363281 -21.753906 18.5625 -20.796875 L 17.03125 -18.765625 C 15.9375 -19.648438 14.835938 -20.289062 13.734375 -20.6875 C 12.640625 -21.09375 11.492188 -21.296875 10.296875 -21.296875 C 8.765625 -21.296875 7.550781 -20.929688 6.65625 -20.203125 C 5.769531 -19.484375 5.328125 -18.59375 5.328125 -17.53125 L 5.328125 -17.46875 C 5.328125 -16.90625 5.414062 -16.40625 5.59375 -15.96875 C 5.769531 -15.539062 6.09375 -15.144531 6.5625 -14.78125 C 7.03125 -14.414062 7.675781 -14.082031 8.5 -13.78125 C 9.320312 -13.476562 10.378906 -13.195312 11.671875 -12.9375 C 14.265625 -12.351562 16.175781 -11.550781 17.40625 -10.53125 C 18.644531 -9.507812 19.265625 -8.109375 19.265625 -6.328125 L 19.265625 -6.265625 C 19.265625 -5.265625 19.0625 -4.359375 18.65625 -3.546875 C 18.257812 -2.734375 17.710938 -2.035156 17.015625 -1.453125 C 16.316406 -0.878906 15.476562 -0.4375 14.5 -0.125 C 13.519531 0.175781 12.453125 0.328125 11.296875 0.328125 Z M 11.296875 0.328125 "/></g></g></g></svg>
